<svg xmlns="http://www.w3.org/2000/svg" width="980" height="430" viewBox="0 0 980 430" font-family="ui-monospace,SFMono-Regular,Menlo,Consolas,monospace">
  <style>
    .tw{animation:tw 3s ease-in-out infinite}
    .t1{animation-delay:-0.6s}.t2{animation-delay:-1.2s}.t3{animation-delay:-1.8s}.t4{animation-delay:-2.4s}
    @keyframes tw{0%,100%{opacity:0.15}50%{opacity:0.9}}
    .f0,.f1,.f2,.f3,.f4,.f5{animation:fl 2.6s ease-in-out infinite}
    .f1{animation-delay:-0.4s}.f2{animation-delay:-0.9s}.f3{animation-delay:-1.3s}.f4{animation-delay:-1.8s}.f5{animation-delay:-2.2s}
    @keyframes fl{0%,100%{opacity:0.5}50%{opacity:1}}
    .bcn{animation:bcn 2s ease-in-out infinite}
    .b1{animation-delay:-0.7s}.b2{animation-delay:-1.3s}
    @keyframes bcn{0%,100%{opacity:0.3}50%{opacity:1}}
    .hook{animation:hook 4s ease-in-out infinite}
    @keyframes hook{0%,100%{transform:translateY(0)}50%{transform:translateY(-16px)}}
    .shoot{animation:shoot 7s linear infinite}
    @keyframes shoot{0%,88%{opacity:0;transform:translate(0,0)}90%{opacity:1}100%{opacity:0;transform:translate(-160px,60px)}}
    .jet{animation:jet 13s linear infinite}
    @keyframes jet{from{transform:translateX(-100px)}to{transform:translateX(1080px)}}
    .blink{animation:blink 1.6s steps(1) infinite}
    @keyframes blink{50%{opacity:0.15}}
  </style>
  <rect x="1" y="1" width="978" height="428" rx="10" fill="#0a0e14" stroke="#1f2833"/>
  <path d="M20 24 v-8 h8 M960 16 h-8 M960 16 v8 M20 342 v8 h8 M960 350 h-8 v-8" stroke="#39434f" fill="none"/>
  <text x="36" y="52" font-size="10" fill="#6ee7f9" letter-spacing="3">02 · SKYLINE</text>
  <text x="176" y="52" font-size="10" fill="#7c8a9a" letter-spacing="2">FIVE SYSTEMS BUILT · THE NEWEST STILL RISING</text>
  <text x="944" y="52" font-size="9" fill="#39434f" text-anchor="end">2021 → NOW</text>

  <circle cx="344" cy="100" r="0.8" fill="rgba(190,220,235,0.7)" class="tw t0"/><circle cx="787" cy="118" r="1.2" fill="rgba(190,220,235,0.7)" class="tw t1"/><circle cx="499" cy="33" r="1.2" fill="rgba(190,220,235,0.7)" class="tw t2"/><circle cx="654" cy="52" r="1.4" fill="rgba(190,220,235,0.7)" class="tw t3"/><circle cx="221" cy="32" r="1.1" fill="rgba(190,220,235,0.7)" class="tw t4"/><circle cx="714" cy="215" r="1.1" fill="rgba(190,220,235,0.7)" class="tw t0"/><circle cx="60" cy="151" r="1.0" fill="rgba(190,220,235,0.7)" class="tw t1"/><circle cx="489" cy="95" r="1.0" fill="rgba(190,220,235,0.7)" class="tw t2"/><circle cx="815" cy="191" r="1.5" fill="rgba(190,220,235,0.7)" class="tw t3"/><circle cx="540" cy="32" r="1.3" fill="rgba(190,220,235,0.7)" class="tw t4"/><circle cx="265" cy="145" r="0.6" fill="rgba(190,220,235,0.7)" class="tw t0"/><circle cx="460" cy="149" r="1.5" fill="rgba(190,220,235,0.7)" class="tw t1"/><circle cx="336" cy="199" r="1.6" fill="rgba(190,220,235,0.7)" class="tw t2"/><circle cx="444" cy="118" r="1.5" fill="rgba(190,220,235,0.7)" class="tw t3"/><circle cx="43" cy="29" r="1.1" fill="rgba(190,220,235,0.7)" class="tw t4"/><circle cx="535" cy="103" r="1.1" fill="rgba(190,220,235,0.7)" class="tw t0"/><circle cx="645" cy="139" r="1.2" fill="rgba(190,220,235,0.7)" class="tw t1"/><circle cx="142" cy="177" r="1.4" fill="rgba(190,220,235,0.7)" class="tw t2"/><circle cx="933" cy="109" r="0.7" fill="rgba(190,220,235,0.7)" class="tw t3"/><circle cx="435" cy="218" r="1.6" fill="rgba(190,220,235,0.7)" class="tw t4"/><circle cx="400" cy="88" r="1.6" fill="rgba(190,220,235,0.7)" class="tw t0"/><circle cx="769" cy="97" r="0.9" fill="rgba(190,220,235,0.7)" class="tw t1"/><circle cx="87" cy="208" r="1.2" fill="rgba(190,220,235,0.7)" class="tw t2"/><circle cx="887" cy="171" r="1.5" fill="rgba(190,220,235,0.7)" class="tw t3"/><circle cx="158" cy="117" r="0.7" fill="rgba(190,220,235,0.7)" class="tw t4"/><circle cx="298" cy="72" r="1.0" fill="rgba(190,220,235,0.7)" class="tw t0"/><circle cx="707" cy="166" r="0.8" fill="rgba(190,220,235,0.7)" class="tw t1"/><circle cx="423" cy="180" r="1.2" fill="rgba(190,220,235,0.7)" class="tw t2"/><circle cx="484" cy="182" r="1.4" fill="rgba(190,220,235,0.7)" class="tw t3"/><circle cx="273" cy="65" r="1.3" fill="rgba(190,220,235,0.7)" class="tw t4"/><circle cx="238" cy="98" r="0.8" fill="rgba(190,220,235,0.7)" class="tw t0"/><circle cx="606" cy="46" r="1.2" fill="rgba(190,220,235,0.7)" class="tw t1"/><circle cx="368" cy="47" r="1.1" fill="rgba(190,220,235,0.7)" class="tw t2"/><circle cx="385" cy="101" r="1.5" fill="rgba(190,220,235,0.7)" class="tw t3"/>
  <path d="M700 90 l-60 24" stroke="rgba(200,240,255,0.8)" stroke-width="1.4" class="shoot"/>
  <g class="jet">
    <path d="M-9 78 H9 M-2 74 L4 78 L-2 82" stroke="rgba(170,200,220,0.5)" stroke-width="1.4" fill="none"/>
    <circle cx="9" cy="78" r="1.6" fill="rgba(255,80,80,0.9)" class="blink"/>
  </g>

  <!-- ground -->
  <path d="M40 330 H940" stroke="rgba(120,150,170,0.45)" stroke-width="1.4"/>

  <rect x="182" y="238" width="80" height="92" rx="3" fill="rgba(13,18,26,0.96)" stroke="rgba(34,245,154,0.4)" stroke-width="1.2"/><rect x="304" y="196" width="104" height="134" rx="3" fill="rgba(13,18,26,0.96)" stroke="rgba(59,130,246,0.4)" stroke-width="1.2"/><rect x="450" y="217" width="80" height="113" rx="3" fill="rgba(13,18,26,0.96)" stroke="rgba(138,92,246,0.4)" stroke-width="1.2"/><rect x="572" y="175" width="80" height="155" rx="3" fill="rgba(13,18,26,0.96)" stroke="rgba(255,106,26,0.4)" stroke-width="1.2"/><rect x="694" y="154" width="104" height="176" rx="3" fill="rgba(13,18,26,0.96)" stroke="rgba(29,212,191,0.4)" stroke-width="1.2"/>
  <rect x="190.0" y="309.0" width="16" height="13" fill="rgba(34,245,154,0.55)" class="f3"/><rect x="214.0" y="309.0" width="16" height="13" fill="rgba(34,245,154,0.06)"/><rect x="238.0" y="309.0" width="16" height="13" fill="rgba(34,245,154,0.55)" class="f1"/><rect x="190.0" y="288.0" width="16" height="13" fill="rgba(34,245,154,0.06)"/><rect x="214.0" y="288.0" width="16" height="13" fill="rgba(34,245,154,0.55)" class="f1"/><rect x="238.0" y="288.0" width="16" height="13" fill="rgba(34,245,154,0.55)" class="f4"/><rect x="190.0" y="267.0" width="16" height="13" fill="rgba(34,245,154,0.06)"/><rect x="214.0" y="267.0" width="16" height="13" fill="rgba(34,245,154,0.55)" class="f1"/><rect x="238.0" y="267.0" width="16" height="13" fill="rgba(34,245,154,0.55)" class="f1"/><rect x="190.0" y="246.0" width="16" height="13" fill="rgba(34,245,154,0.55)" class="f4"/><rect x="214.0" y="246.0" width="16" height="13" fill="rgba(34,245,154,0.55)" class="f5"/><rect x="238.0" y="246.0" width="16" height="13" fill="rgba(34,245,154,0.06)"/><rect x="312.0" y="309.0" width="16" height="13" fill="rgba(59,130,246,0.55)" class="f0"/><rect x="336.0" y="309.0" width="16" height="13" fill="rgba(59,130,246,0.06)"/><rect x="360.0" y="309.0" width="16" height="13" fill="rgba(59,130,246,0.55)" class="f2"/><rect x="384.0" y="309.0" width="16" height="13" fill="rgba(59,130,246,0.55)" class="f0"/><rect x="312.0" y="288.0" width="16" height="13" fill="rgba(59,130,246,0.55)" class="f5"/><rect x="336.0" y="288.0" width="16" height="13" fill="rgba(59,130,246,0.06)"/><rect x="360.0" y="288.0" width="16" height="13" fill="rgba(59,130,246,0.55)" class="f4"/><rect x="384.0" y="288.0" width="16" height="13" fill="rgba(59,130,246,0.06)"/><rect x="312.0" y="267.0" width="16" height="13" fill="rgba(59,130,246,0.55)" class="f1"/><rect x="336.0" y="267.0" width="16" height="13" fill="rgba(59,130,246,0.55)" class="f3"/><rect x="360.0" y="267.0" width="16" height="13" fill="rgba(59,130,246,0.55)" class="f0"/><rect x="384.0" y="267.0" width="16" height="13" fill="rgba(59,130,246,0.55)" class="f0"/><rect x="312.0" y="246.0" width="16" height="13" fill="rgba(59,130,246,0.55)" class="f1"/><rect x="336.0" y="246.0" width="16" height="13" fill="rgba(59,130,246,0.55)" class="f0"/><rect x="360.0" y="246.0" width="16" height="13" fill="rgba(59,130,246,0.06)"/><rect x="384.0" y="246.0" width="16" height="13" fill="rgba(59,130,246,0.55)" class="f5"/><rect x="312.0" y="225.0" width="16" height="13" fill="rgba(59,130,246,0.55)" class="f4"/><rect x="336.0" y="225.0" width="16" height="13" fill="rgba(59,130,246,0.55)" class="f3"/><rect x="360.0" y="225.0" width="16" height="13" fill="rgba(59,130,246,0.06)"/><rect x="384.0" y="225.0" width="16" height="13" fill="rgba(59,130,246,0.06)"/><rect x="312.0" y="204.0" width="16" height="13" fill="rgba(59,130,246,0.55)" class="f4"/><rect x="336.0" y="204.0" width="16" height="13" fill="rgba(59,130,246,0.55)" class="f4"/><rect x="360.0" y="204.0" width="16" height="13" fill="rgba(59,130,246,0.06)"/><rect x="384.0" y="204.0" width="16" height="13" fill="rgba(59,130,246,0.55)" class="f0"/><rect x="458.0" y="309.0" width="16" height="13" fill="rgba(138,92,246,0.06)"/><rect x="482.0" y="309.0" width="16" height="13" fill="rgba(138,92,246,0.55)" class="f3"/><rect x="506.0" y="309.0" width="16" height="13" fill="rgba(138,92,246,0.55)" class="f0"/><rect x="458.0" y="288.0" width="16" height="13" fill="rgba(138,92,246,0.06)"/><rect x="482.0" y="288.0" width="16" height="13" fill="rgba(138,92,246,0.06)"/><rect x="506.0" y="288.0" width="16" height="13" fill="rgba(138,92,246,0.06)"/><rect x="458.0" y="267.0" width="16" height="13" fill="rgba(138,92,246,0.55)" class="f2"/><rect x="482.0" y="267.0" width="16" height="13" fill="rgba(138,92,246,0.06)"/><rect x="506.0" y="267.0" width="16" height="13" fill="rgba(138,92,246,0.06)"/><rect x="458.0" y="246.0" width="16" height="13" fill="rgba(138,92,246,0.06)"/><rect x="482.0" y="246.0" width="16" height="13" fill="rgba(138,92,246,0.06)"/><rect x="506.0" y="246.0" width="16" height="13" fill="rgba(138,92,246,0.06)"/><rect x="458.0" y="225.0" width="16" height="13" fill="rgba(138,92,246,0.55)" class="f2"/><rect x="482.0" y="225.0" width="16" height="13" fill="rgba(138,92,246,0.55)" class="f2"/><rect x="506.0" y="225.0" width="16" height="13" fill="rgba(138,92,246,0.55)" class="f3"/><rect x="580.0" y="309.0" width="16" height="13" fill="rgba(255,106,26,0.55)" class="f2"/><rect x="604.0" y="309.0" width="16" height="13" fill="rgba(255,106,26,0.55)" class="f0"/><rect x="628.0" y="309.0" width="16" height="13" fill="rgba(255,106,26,0.06)"/><rect x="580.0" y="288.0" width="16" height="13" fill="rgba(255,106,26,0.55)" class="f5"/><rect x="604.0" y="288.0" width="16" height="13" fill="rgba(255,106,26,0.55)" class="f2"/><rect x="628.0" y="288.0" width="16" height="13" fill="rgba(255,106,26,0.55)" class="f2"/><rect x="580.0" y="267.0" width="16" height="13" fill="rgba(255,106,26,0.55)" class="f2"/><rect x="604.0" y="267.0" width="16" height="13" fill="rgba(255,106,26,0.06)"/><rect x="628.0" y="267.0" width="16" height="13" fill="rgba(255,106,26,0.55)" class="f2"/><rect x="580.0" y="246.0" width="16" height="13" fill="rgba(255,106,26,0.06)"/><rect x="604.0" y="246.0" width="16" height="13" fill="rgba(255,106,26,0.55)" class="f2"/><rect x="628.0" y="246.0" width="16" height="13" fill="rgba(255,106,26,0.55)" class="f4"/><rect x="580.0" y="225.0" width="16" height="13" fill="rgba(255,106,26,0.55)" class="f0"/><rect x="604.0" y="225.0" width="16" height="13" fill="rgba(255,106,26,0.55)" class="f2"/><rect x="628.0" y="225.0" width="16" height="13" fill="rgba(255,106,26,0.55)" class="f2"/><rect x="580.0" y="204.0" width="16" height="13" fill="rgba(255,106,26,0.55)" class="f3"/><rect x="604.0" y="204.0" width="16" height="13" fill="rgba(255,106,26,0.55)" class="f1"/><rect x="628.0" y="204.0" width="16" height="13" fill="rgba(255,106,26,0.06)"/><rect x="580.0" y="183.0" width="16" height="13" fill="rgba(255,106,26,0.06)"/><rect x="604.0" y="183.0" width="16" height="13" fill="rgba(255,106,26,0.06)"/><rect x="628.0" y="183.0" width="16" height="13" fill="rgba(255,106,26,0.55)" class="f1"/><rect x="702.0" y="309.0" width="16" height="13" fill="rgba(29,212,191,0.55)" class="f1"/><rect x="726.0" y="309.0" width="16" height="13" fill="rgba(29,212,191,0.06)"/><rect x="750.0" y="309.0" width="16" height="13" fill="rgba(29,212,191,0.55)" class="f3"/><rect x="774.0" y="309.0" width="16" height="13" fill="rgba(29,212,191,0.55)" class="f2"/><rect x="702.0" y="288.0" width="16" height="13" fill="rgba(29,212,191,0.55)" class="f2"/><rect x="726.0" y="288.0" width="16" height="13" fill="rgba(29,212,191,0.55)" class="f2"/><rect x="750.0" y="288.0" width="16" height="13" fill="rgba(29,212,191,0.55)" class="f2"/><rect x="774.0" y="288.0" width="16" height="13" fill="rgba(29,212,191,0.55)" class="f4"/><rect x="702.0" y="267.0" width="16" height="13" fill="rgba(29,212,191,0.55)" class="f0"/><rect x="726.0" y="267.0" width="16" height="13" fill="rgba(29,212,191,0.55)" class="f3"/><rect x="750.0" y="267.0" width="16" height="13" fill="rgba(29,212,191,0.55)" class="f5"/><rect x="774.0" y="267.0" width="16" height="13" fill="rgba(29,212,191,0.06)"/><rect x="702.0" y="246.0" width="16" height="13" fill="rgba(29,212,191,0.06)"/><rect x="726.0" y="246.0" width="16" height="13" fill="rgba(29,212,191,0.55)" class="f1"/><rect x="750.0" y="246.0" width="16" height="13" fill="rgba(29,212,191,0.06)"/><rect x="774.0" y="246.0" width="16" height="13" fill="rgba(29,212,191,0.06)"/><rect x="702.0" y="225.0" width="16" height="13" fill="rgba(29,212,191,0.06)"/><rect x="726.0" y="225.0" width="16" height="13" fill="rgba(29,212,191,0.06)"/><rect x="750.0" y="225.0" width="16" height="13" fill="rgba(29,212,191,0.06)"/><rect x="774.0" y="225.0" width="16" height="13" fill="rgba(29,212,191,0.06)"/><rect x="702.0" y="204.0" width="16" height="13" fill="rgba(29,212,191,0.55)" class="f0"/><rect x="726.0" y="204.0" width="16" height="13" fill="rgba(29,212,191,0.55)" class="f1"/><rect x="750.0" y="204.0" width="16" height="13" fill="rgba(29,212,191,0.55)" class="f0"/><rect x="774.0" y="204.0" width="16" height="13" fill="rgba(29,212,191,0.06)"/><rect x="702.0" y="183.0" width="16" height="13" fill="rgba(29,212,191,0.55)" class="f2"/><rect x="726.0" y="183.0" width="16" height="13" fill="rgba(29,212,191,0.06)"/><rect x="750.0" y="183.0" width="16" height="13" fill="rgba(29,212,191,0.06)"/><rect x="774.0" y="183.0" width="16" height="13" fill="rgba(29,212,191,0.55)" class="f3"/><rect x="702.0" y="162.0" width="16" height="13" fill="rgba(29,212,191,0.06)"/><rect x="726.0" y="162.0" width="16" height="13" fill="rgba(29,212,191,0.55)" class="f0"/><rect x="750.0" y="162.0" width="16" height="13" fill="rgba(29,212,191,0.06)"/><rect x="774.0" y="162.0" width="16" height="13" fill="rgba(29,212,191,0.55)" class="f3"/>
  <path d="M222 238 v-13" stroke="rgba(34,245,154,0.55)" stroke-width="1.2"/>
  <circle cx="222" cy="223" r="2" fill="rgba(34,245,154,0.9)" class="bcn b0"/>
  <text x="222" y="211" font-size="9.5" font-weight="700" fill="rgba(34,245,154,0.9)" text-anchor="middle" letter-spacing="1">ZULU</text><path d="M356 196 v-13" stroke="rgba(59,130,246,0.55)" stroke-width="1.2"/>
  <circle cx="356" cy="181" r="2" fill="rgba(59,130,246,0.9)" class="bcn b1"/>
  <text x="356" y="169" font-size="9.5" font-weight="700" fill="rgba(59,130,246,0.9)" text-anchor="middle" letter-spacing="1">AT&amp;T</text><path d="M490 217 v-13" stroke="rgba(138,92,246,0.55)" stroke-width="1.2"/>
  <circle cx="490" cy="202" r="2" fill="rgba(138,92,246,0.9)" class="bcn b2"/>
  <text x="490" y="190" font-size="9.5" font-weight="700" fill="rgba(138,92,246,0.9)" text-anchor="middle" letter-spacing="1">UNISALA</text><path d="M612 175 v-13" stroke="rgba(255,106,26,0.55)" stroke-width="1.2"/>
  <circle cx="612" cy="160" r="2" fill="rgba(255,106,26,0.9)" class="bcn b0"/>
  <text x="612" y="148" font-size="9.5" font-weight="700" fill="rgba(255,106,26,0.9)" text-anchor="middle" letter-spacing="1">BLUEFLITE</text><path d="M746 154 v-13" stroke="rgba(29,212,191,0.55)" stroke-width="1.2"/>
  <circle cx="746" cy="139" r="2" fill="rgba(29,212,191,0.9)" class="bcn b1"/>
  <text x="746" y="120" font-size="9.5" font-weight="700" fill="rgba(29,212,191,0.9)" text-anchor="middle" letter-spacing="1">LETSTRADE</text>
  <g stroke="rgba(120,150,170,0.7)" stroke-width="2" fill="none">
      <path d="M818 330 V108 M826 330 V108"/>
      <path d="M848 108 H676"/>
    </g>
    <path d="M822 94 L676 108" stroke="rgba(120,150,170,0.4)" stroke-width="0.9"/>
    <rect x="840" y="104" width="10" height="11" fill="rgba(120,150,170,0.5)"/>
    <g class="hook">
      <path d="M712 108 V128" stroke="rgba(120,150,170,0.6)" stroke-width="1.2"/>
      <rect x="703" y="128" width="18" height="12" rx="2" fill="rgba(29,212,191,0.95)"/>
      <rect x="706" y="131" width="10" height="2" rx="1" fill="#0e111a"/>
    </g>

  <path d="M1 358 h978" stroke="#1f2833"/>
  <text x="36" y="396" font-size="20" font-weight="700" fill="#dbe4ee">05</text><text x="36" y="413" font-size="8" fill="#7c8a9a" letter-spacing="2">SYSTEMS</text>
  <text x="290" y="396" font-size="20" font-weight="700" fill="#dbe4ee">04</text><text x="290" y="413" font-size="8" fill="#7c8a9a" letter-spacing="2">DOMAINS</text>
  <text x="540" y="396" font-size="20" font-weight="700" fill="#dbe4ee">2017</text><text x="540" y="413" font-size="8" fill="#7c8a9a" letter-spacing="2">IN PRODUCTION SINCE</text>
  <text x="790" y="396" font-size="20" font-weight="700" fill="#6ee7f9">RISING</text><text x="790" y="413" font-size="8" fill="#7c8a9a" letter-spacing="2">STILL</text>
</svg>
